<?xml version="1.0" standalone="no"?>
<!DOCTYPE svg PUBLIC "-//W3C//DTD SVG 20010904//EN"
 "http://www.w3.org/TR/2001/REC-SVG-20010904/DTD/svg10.dtd">
<svg version="1.0"
  xmlns="http://www.w3.org/2000/svg" width="256.000000pt" height="256.000000pt" viewBox="0 0 256.000000 256.000000" preserveAspectRatio="xMidYMid meet">

  <g transform="translate(0.000000,256.000000) scale(0.100000,-0.100000)" fill="#d0a133e6" stroke="none">
    <path d="M1085 2226 c-265 -61 -462 -253 -531 -516 -34 -130 -19 -306 37 -437
11 -26 158 -274 326 -551 245 -402 309 -501 318 -490 20 21 584 953 615 1016
51 104 64 165 64 302 0 108 -4 136 -27 205 -37 111 -90 198 -172 280 -130 129
-279 194 -465 201 -67 2 -127 -1 -165 -10z m285 -111 c216 -57 390 -240 431
-453 17 -90 7 -232 -23 -312 -21 -57 -545 -936 -553 -928 -9 10 -507 832 -524
867 -32 62 -61 185 -61 255 1 262 187 504 440 570 72 19 221 20 290 1z"/>
    <path d="M1114 1787 c-167 -80 -205 -299 -73 -428 104 -101 253 -105 362 -9
62 55 90 124 85 209 -5 77 -25 125 -75 174 -50 51 -97 71 -178 75 -58 2 -79
-1 -121 -21z m155 -87 c80 -23 132 -112 111 -190 -22 -82 -85 -126 -169 -118
-87 9 -141 70 -141 161 0 58 32 105 90 135 50 25 61 26 109 12z"/>
  </g>
</svg>
