<?xml version="1.0" standalone="no"?>
<!DOCTYPE svg PUBLIC "-//W3C//DTD SVG 20010904//EN"
 "http://www.w3.org/TR/2001/REC-SVG-20010904/DTD/svg10.dtd">
<svg version="1.0"
  xmlns="http://www.w3.org/2000/svg" width="256.000000pt" height="256.000000pt" viewBox="0 0 256.000000 256.000000" preserveAspectRatio="xMidYMid meet">

  <g transform="translate(0.000000,256.000000) scale(0.100000,-0.100000)" fill="#d0a133" stroke="none">
    <path d="M1075 2229 c-236 -34 -484 -178 -638 -369 -329 -410 -290 -995 90
-1361 171 -165 360 -253 602 -280 180 -20 370 15 546 101 564 277 740 1008
364 1510 -227 302 -590 452 -964 399z m333 -115 c295 -61 549 -273 661 -554
75 -190 82 -414 19 -610 -94 -294 -333 -520 -635 -602 -109 -29 -326 -31 -433
-4 -339 87 -589 337 -676 676 -25 99 -26 314 -1 413 66 265 240 483 482 604
71 36 176 72 243 83 83 14 259 11 340 -6z"/>
    <path d="M1170 1493 l0 -318 275 -158 c151 -87 279 -156 285 -152 6 3 19 24
30 44 l19 39 -249 143 -250 144 0 288 0 287 -55 0 -55 0 0 -317z"/>
  </g>
</svg>
